<svg xmlns="http://www.w3.org/2000/svg" xmlns:xlink="http://www.w3.org/1999/xlink" width="500" zoomAndPan="magnify" viewBox="0 0 375 374.999991" height="500" preserveAspectRatio="xMidYMid meet" version="1.0"><defs><clipPath id="aec10fa9d1"><path d="M 88 147 L 330 147 L 330 348.949219 L 88 348.949219 Z M 88 147 " clip-rule="nonzero"/></clipPath><clipPath id="a0c5588e62"><path d="M 58 25.699219 L 233 25.699219 L 233 238 L 58 238 Z M 58 25.699219 " clip-rule="nonzero"/></clipPath></defs><g clip-path="url(#aec10fa9d1)"><path fill="#51ade5" d="M 173.050781 285.148438 C 184.636719 283.628906 195.664062 273.300781 195.871094 273.109375 C 195.847656 273.183594 196.238281 273.921875 206.65625 281.039062 C 219.171875 289.585938 230.535156 276.824219 230.535156 276.824219 C 247.574219 287.410156 259.269531 282.40625 259.269531 282.40625 C 248.90625 289.121094 234.164062 284.679688 234.164062 284.679688 C 211.585938 297.378906 196.320312 282.183594 196.320312 282.183594 C 186.839844 286.699219 173.050781 285.148438 173.050781 285.148438 Z M 88.65625 275.15625 C 95.863281 290.882812 106.210938 304.871094 118.898438 316.320312 C 155.316406 310.492188 169.386719 293.945312 169.386719 293.945312 C 169.386719 293.945312 179.9375 312.265625 204.882812 312.089844 C 229.820312 311.914062 235.324219 293.945312 235.324219 293.945312 C 235.324219 293.945312 244.210938 305.558594 267.234375 311.195312 C 282.027344 314.820312 299.371094 305.640625 304.4375 298.648438 L 304.445312 298.636719 C 295.59375 296.464844 289.378906 294.160156 289.378906 294.160156 C 271.625 304.816406 252.953125 297.066406 252.953125 297.066406 C 271.679688 300.425781 287.25 277.09375 287.25 277.09375 C 287.25 277.09375 294.011719 285.695312 309.019531 292.175781 C 322.203125 272.246094 329.886719 248.359375 329.886719 222.683594 C 329.886719 194.335938 320.523438 168.167969 304.722656 147.097656 C 302.5625 148.625 300.058594 150.671875 296.890625 154.082031 C 271.03125 181.945312 234.074219 209.417969 205.234375 227.421875 C 165.785156 252.054688 124.398438 268.027344 88.65625 275.15625 Z M 121.605469 318.695312 C 143.667969 337.507812 172.285156 348.867188 203.566406 348.867188 C 230.949219 348.867188 256.300781 340.160156 276.992188 325.367188 C 254.925781 325.902344 239.507812 313.359375 239.507812 313.359375 C 204.941406 338.125 169.386719 312.265625 169.386719 312.265625 C 144.789062 319.121094 129.746094 319.503906 121.605469 318.695312 " fill-opacity="1" fill-rule="nonzero"/></g><path fill="#3871c1" d="M 205.234375 227.421875 C 234.074219 209.417969 271.03125 181.945312 296.890625 154.082031 C 300.058594 150.671875 302.5625 148.625 304.722656 147.097656 C 305.324219 147.902344 305.917969 148.71875 306.5 149.535156 C 291.132812 173.175781 261.382812 213.609375 219.269531 246.847656 C 181.921875 276.324219 143.449219 297.464844 110.742188 308.265625 C 101.738281 298.523438 94.25 287.363281 88.65625 275.15625 C 124.398438 268.027344 165.785156 252.054688 205.234375 227.421875 " fill-opacity="1" fill-rule="nonzero"/><path fill="#f68712" d="M 292.226562 132.808594 C 278.769531 147.484375 253.707031 171.835938 218.496094 193.675781 C 188.488281 212.285156 157.175781 226.28125 129.886719 233.742188 C 124.132812 235.3125 118.554688 236.59375 113.210938 237.566406 C 105.148438 239.035156 97.605469 239.800781 90.757812 239.800781 C 86.109375 239.800781 81.925781 239.445312 78.261719 238.757812 C 77.59375 233.496094 77.246094 228.128906 77.246094 222.683594 C 77.246094 176.835938 101.726562 136.695312 138.34375 114.601562 C 149.613281 107.800781 162.039062 102.707031 175.253906 99.6875 C 175.324219 99.667969 175.390625 99.652344 175.460938 99.640625 C 178.894531 98.855469 182.382812 98.21875 185.917969 97.722656 C 186.410156 97.65625 186.902344 97.589844 187.398438 97.527344 C 190.890625 97.078125 194.429688 96.777344 198.007812 96.621094 C 198.238281 96.613281 198.46875 96.601562 198.699219 96.59375 C 200.316406 96.53125 201.9375 96.503906 203.566406 96.503906 C 209.988281 96.503906 216.292969 96.980469 222.457031 97.90625 C 249.457031 101.949219 273.660156 114.53125 292.226562 132.808594 " fill-opacity="1" fill-rule="nonzero"/><path fill="#2c3892" d="M 359.902344 80.355469 C 369.710938 65.339844 375.007812 52.003906 371.847656 49.851562 C 368.6875 47.699219 358.191406 57.492188 347.773438 72.089844 L 307.75 72.394531 L 301.339844 81.777344 L 332.71875 95.5 C 328.679688 102.15625 324.492188 109.285156 320.832031 115.847656 L 300.375 114.777344 L 297.304688 119.269531 L 314.808594 127.109375 C 314.5 127.726562 282.941406 169.648438 225.644531 205.183594 C 148.144531 253.253906 70.125 267.792969 51.355469 237.609375 C 38.347656 216.699219 57.210938 179.808594 95.804688 143.125 C 34.0625 190.90625 0.0078125 244.515625 17.332031 272.367188 C 37.984375 305.574219 123.984375 289.828125 209.097656 236.691406 C 277.925781 193.714844 320.453125 131.292969 320.640625 131.085938 L 328.015625 141.296875 L 331.082031 136.808594 L 328.9375 121.375 C 333.722656 115.574219 338.84375 109.082031 343.574219 102.898438 L 350.5625 124.21875 L 356.972656 114.835938 L 359.902344 80.355469 " fill-opacity="1" fill-rule="nonzero"/><g clip-path="url(#a0c5588e62)"><path fill="#24265d" d="M 202.027344 99.3125 C 206.0625 102.78125 210.960938 105.0625 216.183594 106.070312 C 221.726562 107.136719 226.894531 108.808594 232.585938 111.511719 C 232.585938 111.511719 229.136719 104.996094 222.457031 97.90625 C 212.488281 87.316406 195.316406 75.457031 171.6875 82.128906 C 172.03125 81.910156 172.382812 81.691406 172.734375 81.46875 C 171.03125 80.792969 169.054688 80.242188 166.820312 79.992188 C 166.820312 79.992188 167.996094 79.640625 169.933594 79.621094 C 173.59375 79.578125 177.195312 78.683594 180.398438 76.914062 L 180.507812 76.855469 C 178.578125 75.972656 177.519531 74.503906 174.792969 74.199219 C 174.792969 74.199219 176.363281 73.730469 178.859375 73.84375 C 183.003906 74.03125 187.140625 73.261719 190.875 71.464844 C 191.085938 71.367188 191.296875 71.265625 191.507812 71.164062 C 189.414062 70.085938 186.734375 69.109375 183.535156 68.753906 C 183.535156 68.753906 185.742188 68.023438 188.828125 68.035156 C 194.957031 68.066406 201.027344 66.804688 206.71875 64.519531 C 206.953125 64.425781 207.179688 64.335938 207.390625 64.25 C 202.398438 62.757812 195.699219 61.257812 192.464844 60.898438 C 192.464844 60.898438 208.402344 59.238281 220.167969 60.40625 C 220.167969 60.40625 180.449219 33.039062 158.03125 82.953125 C 161.753906 70.488281 162.84375 48.789062 143.023438 35.292969 C 133.722656 28.960938 120.964844 25.753906 120.964844 25.753906 C 124.488281 29.21875 141.855469 49.714844 143.398438 52.851562 C 143.265625 52.753906 138.996094 49.59375 133.984375 47.488281 C 134.058594 47.730469 134.136719 47.96875 134.210938 48.207031 C 135.570312 52.546875 143.777344 62.546875 144.71875 64.460938 C 144.71875 64.460938 141.265625 61.886719 136.898438 59.8125 C 137.921875 66.113281 140.847656 72.855469 141.109375 78.546875 C 121.117188 39.691406 77.445312 51.761719 77.445312 51.761719 C 91.808594 53.292969 110.449219 59.234375 110.449219 59.234375 C 106.492188 58.859375 98.105469 58.992188 91.765625 59.535156 C 91.976562 59.675781 92.203125 59.824219 92.441406 59.980469 C 98.710938 64.148438 105.695312 67.171875 113.070312 68.6875 C 116.734375 69.441406 119.167969 70.851562 119.167969 70.851562 C 115.253906 70.480469 111.808594 70.984375 109.035156 71.75 L 109.367188 72 C 113.558594 75.183594 118.480469 77.246094 123.671875 78.128906 C 126.574219 78.625 128.265625 79.535156 128.265625 79.535156 C 124.929688 79.222656 123.300781 80.71875 120.773438 81.292969 C 120.886719 81.390625 120.992188 81.484375 121.101562 81.578125 C 122.011719 82.359375 122.96875 83.070312 123.976562 83.707031 C 71.734375 66.835938 58.136719 104.613281 58.136719 104.613281 C 69.875 96.453125 87.628906 88.828125 87.976562 88.679688 C 84.738281 90.984375 78.488281 96.570312 74.054688 101.121094 C 74.09375 101.117188 74.136719 101.113281 74.179688 101.105469 C 82.058594 100.058594 89.652344 97.527344 96.6875 93.820312 C 99.714844 92.222656 102.183594 91.753906 102.183594 91.753906 C 98.984375 94.035156 96.707031 96.667969 95.117188 99.0625 C 95.1875 99.058594 95.253906 99.050781 95.324219 99.046875 C 100.667969 98.710938 105.824219 97.039062 110.410156 94.277344 C 112.824219 92.824219 114.636719 92.398438 114.746094 92.375 C 112.023438 94.316406 111.773438 96.515625 110.242188 98.597656 L 110.347656 98.597656 C 114.769531 98.574219 119.140625 97.492188 123.007812 95.351562 C 125.101562 94.191406 126.609375 93.839844 126.703125 93.820312 C 124.46875 95.40625 122.691406 97.171875 121.273438 98.902344 C 123.359375 99.011719 125.347656 99.144531 127.238281 99.296875 C 98.429688 106.378906 98.597656 139.746094 98.597656 139.746094 C 100.296875 136.175781 102.496094 133.089844 105.015625 130.394531 C 106.257812 123.851562 108.890625 118.726562 108.890625 118.726562 C 108.3125 122.011719 109.558594 129.574219 109.578125 129.558594 C 113.722656 125.925781 115.496094 119.332031 117.636719 114.257812 C 118.1875 112.949219 118.578125 112.191406 118.578125 112.191406 C 118.011719 115.390625 117.746094 118.253906 117.679688 120.78125 C 117.710938 120.761719 117.746094 120.746094 117.777344 120.730469 C 123.234375 117.6875 127.59375 112.996094 130.097656 107.277344 C 130.515625 106.320312 129.914062 112.378906 129.886719 115.078125 C 137.285156 108.269531 141.847656 110.1875 141.847656 110.1875 C 140.75 111.492188 139.570312 112.957031 138.34375 114.601562 C 124.984375 132.492188 105.535156 170.941406 113.210938 237.566406 C 118.554688 236.59375 124.132812 235.3125 129.886719 233.742188 C 123.625 207.65625 116.164062 154 146.675781 114.15625 C 146.679688 114.453125 147.796875 112.367188 148.777344 111.304688 C 148.957031 111.457031 146.804688 120.488281 146.671875 124.253906 L 146.667969 124.339844 C 148.464844 123.105469 150.324219 122.949219 152.035156 120.707031 C 152.011719 120.800781 151.605469 122.316406 150.316406 124.308594 C 147.871094 128.101562 146.328125 132.402344 145.90625 136.894531 C 145.902344 136.949219 145.894531 137.003906 145.890625 137.058594 C 147.945312 135.78125 150.226562 133.933594 152.230469 131.300781 C 152.207031 131.425781 151.730469 133.445312 150.347656 135.878906 C 147.039062 141.699219 144.710938 148.019531 143.628906 154.625 C 143.625 154.660156 143.617188 154.695312 143.613281 154.730469 C 147.566406 151.113281 152.433594 146 154.464844 143.332031 C 154.324219 143.636719 147.4375 158.367188 140.261719 168.035156 C 140.261719 168.035156 172.375 153.878906 161.808594 113.410156 C 163.335938 119.492188 166.898438 124.855469 171.910156 128.625 C 171.949219 128.65625 171.992188 128.6875 172.03125 128.714844 C 172.589844 126.484375 172.800781 120.621094 172.90625 117.84375 C 172.90625 117.84375 179.371094 125.640625 181.984375 136.765625 L 182.0625 136.835938 C 182.578125 134.683594 183.257812 128.925781 183.359375 126.285156 C 183.359375 126.285156 188.136719 135.988281 195.980469 156.992188 C 195.980469 156.992188 205.640625 120.847656 177.839844 101.21875 C 181.527344 103.128906 185.644531 104.113281 189.828125 104.082031 L 189.949219 104.082031 C 189.324219 102.640625 185.945312 98.804688 185.433594 98.082031 C 185.433594 98.082031 197.695312 104.089844 202.710938 104.441406 L 202.855469 104.453125 C 202.097656 102.738281 198.578125 97.3125 198.347656 96.984375 C 198.347656 96.984375 200.773438 98.230469 202.027344 99.3125 " fill-opacity="1" fill-rule="nonzero"/></g></svg>